# xmcd CD database file
#
# Track frame offsets:
#	150
#	14987
#	33225
#	46725
#	61662
#	76675
#	89950
#	105287
#	119850
#	139125
#	155700
#	166850
#
# Disc length: 2389 seconds
#
# Revision: 4
# Processed by: cddbd v1.5PL3 Copyright (c) Steve Scherf et al.
# Submitted via: CDex 1.40Release
#
DISCID=9b09530c
DTITLE=The Bellamy Brothers - The Bellamy Brothers Best
DYEAR=1979
DGENRE=Country
TTITLE0=Let Your Love Flow
TTITLE1=Satin Sheets
TTITLE2=Do You Love As Good As You Look
TTITLE3=Lovers Live Longer
TTITLE4=Dancin' Cowboys
TTITLE5=Slippin' Away
TTITLE6=I Need More Of You
TTITLE7=If I Said You Have A Beautiful Body Would You Hold It Against Me
TTITLE8=You Can Get Crazy With Me
TTITLE9=Sugar Daddy
TTITLE10=Wet T-Shirt
TTITLE11=Highway 2-18 (Hang On To Your Dreams)
EXTD=YEAR: 1979 ID3G: 2
EXTT0=
EXTT1=
EXTT2=
EXTT3=
EXTT4=
EXTT5=
EXTT6=
EXTT7=
EXTT8=
EXTT9=
EXTT10=
EXTT11=
PLAYORDER=
